<?xml version="1.0" encoding="UTF-8" ?>
<!DOCTYPE svg PUBLIC "-//W3C//DTD SVG 1.1//EN" "http://www.w3.org/Graphics/SVG/1.1/DTD/svg11.dtd">
<svg width="128pt" height="128pt" viewBox="0 0 128 128" version="1.1" xmlns="http://www.w3.org/2000/svg">
<g id="#000000ff">
<path fill="#000000" opacity="1.00" d=" M 14.14 23.22 C 18.17 20.40 23.26 20.16 28.00 19.91 C 27.99 22.22 28.00 24.52 28.01 26.82 C 25.76 27.21 23.38 27.24 21.31 28.29 C 19.20 29.35 18.35 31.79 18.17 34.00 C 17.54 41.52 18.63 49.13 17.48 56.61 C 16.97 60.25 14.60 63.15 11.97 65.53 C 14.17 67.63 16.39 69.94 17.08 73.01 C 19.27 81.97 16.82 91.37 18.67 100.35 C 19.77 104.45 24.54 104.75 28.01 105.18 C 28.00 107.49 27.99 109.79 28.00 112.09 C 23.30 111.82 18.21 111.69 14.23 108.84 C 11.43 106.93 9.89 103.69 9.41 100.41 C 8.27 92.09 9.78 83.60 8.55 75.30 C 7.70 71.23 3.68 69.41 0.00 68.64 L 0.00 62.26 C 3.86 61.75 7.94 59.58 8.66 55.40 C 9.66 47.42 8.32 39.31 9.41 31.32 C 9.87 28.15 11.42 25.03 14.14 23.22 Z" />
<path fill="#000000" opacity="1.00" d=" M 45.61 23.62 C 49.67 20.45 55.05 20.12 60.00 19.94 C 60.00 22.26 60.00 24.57 60.00 26.89 C 57.13 27.28 53.67 27.19 51.65 29.66 C 49.70 32.37 50.09 35.90 49.98 39.06 C 49.87 44.91 50.40 50.81 49.48 56.62 C 48.92 60.25 46.65 63.29 43.86 65.55 C 46.77 67.80 48.94 70.99 49.49 74.68 C 50.77 82.93 49.24 91.36 50.45 99.61 C 51.16 104.14 56.25 104.95 60.00 105.12 C 60.00 107.43 60.00 109.75 60.00 112.06 C 55.29 111.87 50.20 111.67 46.21 108.83 C 43.25 106.80 41.73 103.31 41.32 99.84 C 40.47 91.92 41.52 83.93 40.72 76.02 C 40.10 71.77 36.07 69.10 32.00 68.82 C 32.00 66.61 32.00 64.40 32.00 62.18 C 36.10 61.91 40.22 59.24 40.77 54.91 C 41.42 47.58 40.60 40.19 41.21 32.86 C 41.50 29.39 42.73 25.77 45.61 23.62 Z" />
<path fill="#000000" opacity="1.00" d=" M 68.00 19.94 C 72.95 20.12 78.34 20.45 82.40 23.63 C 85.31 25.80 86.49 29.47 86.79 32.95 C 87.38 40.23 86.61 47.55 87.20 54.82 C 87.72 59.19 91.87 61.92 96.00 62.18 C 96.00 64.40 96.00 66.61 96.00 68.83 C 91.92 69.10 87.88 71.77 87.26 76.03 C 86.53 83.67 87.44 91.38 86.76 99.02 C 86.43 102.48 85.24 106.10 82.42 108.33 C 78.40 111.63 72.96 111.87 68.00 112.06 C 68.00 109.75 68.00 107.43 68.00 105.12 C 71.06 104.73 74.98 104.74 76.73 101.69 C 78.56 98.09 77.85 93.86 78.01 89.97 C 78.19 84.01 77.32 77.83 79.21 72.05 C 80.03 69.35 82.09 67.32 84.14 65.48 C 81.49 63.40 79.27 60.63 78.64 57.24 C 77.04 48.87 78.95 40.23 77.44 31.88 C 76.48 27.62 71.56 27.14 68.00 26.89 C 68.00 24.57 68.00 22.26 68.00 19.94 Z" />
<path fill="#000000" opacity="1.00" d=" M 100.00 19.90 C 104.72 20.18 109.78 20.38 113.81 23.18 C 116.58 25.00 118.12 28.17 118.58 31.38 C 119.69 39.40 118.31 47.56 119.37 55.57 C 120.14 59.72 124.26 61.63 128.00 62.36 L 128.00 68.74 C 123.98 69.23 119.83 71.71 119.28 76.05 C 118.45 83.90 119.55 91.84 118.68 99.69 C 118.27 103.20 116.80 106.78 113.79 108.82 C 109.81 111.69 104.71 111.82 100.00 112.09 C 100.01 109.79 100.00 107.49 99.99 105.18 C 102.24 104.79 104.63 104.75 106.69 103.68 C 108.74 102.61 109.61 100.24 109.80 98.05 C 110.50 90.27 109.35 82.39 110.51 74.64 C 111.00 70.94 113.31 67.92 116.03 65.52 C 113.61 63.29 111.27 60.70 110.67 57.34 C 109.00 48.94 110.98 40.25 109.43 31.85 C 108.46 27.58 103.53 27.23 99.99 26.82 C 100.00 24.52 100.01 22.21 100.00 19.90 Z" />
</g>
</svg>
